<?xml version="1.0" encoding="UTF-8" standalone="no"?>
<!-- Created with Inkscape (http://www.inkscape.org/) -->

<svg
   xmlns:dc="http://purl.org/dc/elements/1.1/"
   xmlns:cc="http://creativecommons.org/ns#"
   xmlns:rdf="http://www.w3.org/1999/02/22-rdf-syntax-ns#"
   xmlns:svg="http://www.w3.org/2000/svg"
   xmlns="http://www.w3.org/2000/svg"
   xmlns:sodipodi="http://sodipodi.sourceforge.net/DTD/sodipodi-0.dtd"
   xmlns:inkscape="http://www.inkscape.org/namespaces/inkscape"
   width="122.2963mm"
   height="145.81482mm"
   viewBox="0 0 110.06667 131.23333"
   version="1.1"
   id="svg8"
   inkscape:version="0.92.3 (2405546, 2018-03-11)"
   sodipodi:docname="fridge add.svg">
  <defs
     id="defs2" />
  <sodipodi:namedview
     id="base"
     pagecolor="#ffffff"
     bordercolor="#666666"
     borderopacity="1.0"
     inkscape:pageopacity="0.0"
     inkscape:pageshadow="2"
     inkscape:zoom="0.49497475"
     inkscape:cx="-581.75728"
     inkscape:cy="494.759"
     inkscape:document-units="mm"
     inkscape:current-layer="layer1"
     showgrid="false"
     showborder="true"
     inkscape:window-width="1920"
     inkscape:window-height="1001"
     inkscape:window-x="-9"
     inkscape:window-y="-9"
     inkscape:window-maximized="1"
     scale-x="0.9"
     inkscape:pagecheckerboard="false"
     fit-margin-top="0"
     fit-margin-left="0"
     fit-margin-right="0"
     fit-margin-bottom="0" />
  <metadata
     id="metadata5">
    <rdf:RDF>
      <cc:Work
         rdf:about="">
        <dc:format>image/svg+xml</dc:format>
        <dc:type
           rdf:resource="http://purl.org/dc/dcmitype/StillImage" />
        <dc:title></dc:title>
      </cc:Work>
    </rdf:RDF>
  </metadata>
  <g
     inkscape:groupmode="layer"
     id="layer2"
     inkscape:label="Layer 2"
     style="display:inline"
     transform="translate(-60.923653,-70.909233)" />
  <g
     inkscape:label="Layer 1"
     inkscape:groupmode="layer"
     id="layer1"
     style="display:inline"
     transform="translate(-60.923653,-70.909233)">
    <g
       id="g922"
       transform="translate(119.73675,31.537804)">
      <g
         transform="matrix(0.26458333,0,0,0.26458333,-69.39643,39.371429)"
         id="g1198"
         style="display:inline">
        <g
           id="g1129">
          <rect
             x="104"
             y="64"
             style="fill:#ffa64d"
             width="208"
             height="104"
             id="rect1125" />
          <rect
             x="160"
             y="368"
             style="fill:#ffa64d"
             width="96"
             height="32"
             id="rect1127" />
        </g>
        <g
           id="g1137">
          <path
             inkscape:connector-curvature="0"
             style="fill:#333333"
             d="M 320,32 H 96 C 82.768,32 72,42.768 72,56 v 384 c 0,13.232 10.768,24 24,24 h 224 c 13.232,0 24,-10.768 24,-24 V 56 C 344,42.768 333.232,32 320,32 Z M 96,48 h 224 c 4.416,0 8,3.592 8,8 v 128 h -16 v 16 h 16 v 128 h -40 v -80 h -8 v -32 h -48 v 32 h -8 v 80 H 209.44 L 215.888,289.32 216,272 c 0,-22.056 -17.944,-40 -40,-40 -22.056,0 -40,17.944 -40,40 v 16 l 6.592,40 H 88 V 200 H 296 V 184 H 88 V 56 c 0,-4.408 3.584,-8 8,-8 z m 144,216 h 32 v 64 h -32 z m 24,-16 h -16 v -16 h 16 z m -111.888,40 h 47.784 l -6.664,40 H 158.776 Z M 152,272 c 0,-13.232 10.768,-24 24,-24 13.232,0 24,10.768 24,24 z M 320,448 H 96 c -4.416,0 -8,-3.592 -8,-8 v -96 h 57.224 61.544 17.232 64 40 v 96 c 0,4.408 -3.584,8 -8,8 z"
             id="path1131" />
          <rect
             x="104"
             y="64"
             style="fill:#333333"
             width="64"
             height="16"
             id="rect1133" />
          <path
             inkscape:connector-curvature="0"
             style="fill:#333333"
             d="m 456,155.056 -32,-16 V 32 C 424,14.352 409.648,0 392,0 378.736,0 367.344,8.112 362.496,19.632 352.216,7.64 336.992,0 320,0 H 96 C 65.128,0 40,25.12 40,56 v 384 c 0,30.88 25.128,56 56,56 h 224 c 16.992,0 32.216,-7.64 42.496,-19.632 4.848,11.52 16.24,19.632 29.504,19.632 17.648,0 32,-14.352 32,-32 V 276.944 l 32,-16 z M 408,464 c 0,8.824 -7.176,16 -16,16 -8.824,0 -16,-7.176 -16,-16 v -40 h -16 v 16 c 0,22.056 -17.944,40 -40,40 H 96 C 73.944,480 56,462.056 56,440 V 56 C 56,33.944 73.944,16 96,16 h 224 c 22.056,0 40,17.944 40,40 v 352 h 16 V 32 c 0,-8.824 7.176,-16 16,-16 8.824,0 16,7.176 16,16 z m 32,-212.944 -16,8 V 156.944 l 16,8 z"
             id="path1135" />
        </g>
        <g
           id="g1139" />
        <g
           id="g1141" />
        <g
           id="g1143" />
        <g
           id="g1145" />
        <g
           id="g1147" />
        <g
           id="g1149" />
        <g
           id="g1151" />
        <g
           id="g1153" />
        <g
           id="g1155" />
        <g
           id="g1157" />
        <g
           id="g1159" />
        <g
           id="g1161" />
        <g
           id="g1163" />
        <g
           id="g1165" />
        <g
           id="g1167" />
      </g>
      <g
         transform="matrix(0.10432601,0,0,0.10432602,-12.450337,100.55085)"
         id="g1071">
        <path
           inkscape:connector-curvature="0"
           style="fill:#77dd00"
           d="M 256,0 C 115.3,0 0,115.3 0,256 0,396.7 115.3,512 256,512 396.7,512 512,396.7 512,256 512,115.3 396.7,0 256,0 Z"
           id="path1007" />
        <path
           inkscape:connector-curvature="0"
           style="fill:#66bb00"
           d="M 512,256 C 512,396.7 396.7,512 256,512 V 0 c 140.7,0 256,115.3 256,256 z"
           id="path1009" />
        <polygon
           style="fill:#e7e7e7"
           points="226,106 286,106 286,226 406,226 406,286 286,286 286,406 226,406 226,286 106,286 106,226 226,226 "
           id="polygon1011" />
        <polygon
           style="fill:#d3d3d8"
           points="256,106 286,106 286,226 406,226 406,286 286,286 286,406 256,406 "
           id="polygon1013" />
        <g
           id="g1015" />
        <g
           id="g1017" />
        <g
           id="g1019" />
        <g
           id="g1021" />
        <g
           id="g1023" />
        <g
           id="g1025" />
        <g
           id="g1027" />
        <g
           id="g1029" />
        <g
           id="g1031" />
        <g
           id="g1033" />
        <g
           id="g1035" />
        <g
           id="g1037" />
        <g
           id="g1039" />
        <g
           id="g1041" />
        <g
           id="g1043" />
      </g>
    </g>
  </g>
</svg>
