<?xml version="1.0" encoding="iso-8859-1"?>
<!-- Generator: Adobe Illustrator 19.0.0, SVG Export Plug-In . SVG Version: 6.00 Build 0)  -->
<svg version="1.1" id="Capa_1" xmlns="http://www.w3.org/2000/svg" xmlns:xlink="http://www.w3.org/1999/xlink" x="0px" y="0px"
	 viewBox="0 0 496 496" style="enable-background:new 0 0 496 496;" xml:space="preserve">
<g>
	<rect x="104" y="64" style="fill:#FFA64D;" width="208" height="104"/>
	<rect x="160" y="368" style="fill:#FFA64D;" width="96" height="32"/>
</g>
<g>
	<path style="fill:#333333;" d="M320,32H96c-13.232,0-24,10.768-24,24v384c0,13.232,10.768,24,24,24h224c13.232,0,24-10.768,24-24
		V56C344,42.768,333.232,32,320,32z M96,48h224c4.416,0,8,3.592,8,8v128h-16v16h16v128h-40v-80h-8v-32h-48v32h-8v80h-14.56
		l6.448-38.68L216,272c0-22.056-17.944-40-40-40s-40,17.944-40,40v16l6.592,40H88V200h208v-16H88V56C88,51.592,91.584,48,96,48z
		 M240,264h32v64h-32V264z M264,248h-16v-16h16V248z M152.112,288h47.784l-6.664,40h-34.456L152.112,288z M152,272
		c0-13.232,10.768-24,24-24s24,10.768,24,24H152z M320,448H96c-4.416,0-8-3.592-8-8v-96h57.224h61.544H224h64h40v96
		C328,444.408,324.416,448,320,448z"/>
	<rect x="104" y="64" style="fill:#333333;" width="64" height="16"/>
	<path style="fill:#333333;" d="M456,155.056l-32-16V32c0-17.648-14.352-32-32-32c-13.264,0-24.656,8.112-29.504,19.632
		C352.216,7.64,336.992,0,320,0H96C65.128,0,40,25.12,40,56v384c0,30.88,25.128,56,56,56h224c16.992,0,32.216-7.64,42.496-19.632
		C367.344,487.888,378.736,496,392,496c17.648,0,32-14.352,32-32V276.944l32-16V155.056z M408,464c0,8.824-7.176,16-16,16
		s-16-7.176-16-16v-40h-16v16c0,22.056-17.944,40-40,40H96c-22.056,0-40-17.944-40-40V56c0-22.056,17.944-40,40-40h224
		c22.056,0,40,17.944,40,40v352h16V32c0-8.824,7.176-16,16-16s16,7.176,16,16V464z M440,251.056l-16,8V156.944l16,8V251.056z"/>
</g>
<g>
</g>
<g>
</g>
<g>
</g>
<g>
</g>
<g>
</g>
<g>
</g>
<g>
</g>
<g>
</g>
<g>
</g>
<g>
</g>
<g>
</g>
<g>
</g>
<g>
</g>
<g>
</g>
<g>
</g>
</svg>
