<?xml version="1.0" encoding="UTF-8" standalone="no"?>
<!-- Created with Inkscape (http://www.inkscape.org/) -->

<svg
   xmlns:dc="http://purl.org/dc/elements/1.1/"
   xmlns:cc="http://creativecommons.org/ns#"
   xmlns:rdf="http://www.w3.org/1999/02/22-rdf-syntax-ns#"
   xmlns:svg="http://www.w3.org/2000/svg"
   xmlns="http://www.w3.org/2000/svg"
   xmlns:sodipodi="http://sodipodi.sourceforge.net/DTD/sodipodi-0.dtd"
   xmlns:inkscape="http://www.inkscape.org/namespaces/inkscape"
   width="144.85088mm"
   height="98.424995mm"
   viewBox="0 0 144.85088 98.424995"
   version="1.1"
   id="svg8"
   inkscape:version="0.92.3 (2405546, 2018-03-11)"
   sodipodi:docname="igloo add.svg">
  <defs
     id="defs2" />
  <sodipodi:namedview
     id="base"
     pagecolor="#ffffff"
     bordercolor="#666666"
     borderopacity="1.0"
     inkscape:pageopacity="0.0"
     inkscape:pageshadow="2"
     inkscape:zoom="0.35"
     inkscape:cx="-125.39587"
     inkscape:cy="301.59715"
     inkscape:document-units="mm"
     inkscape:current-layer="layer1"
     showgrid="false"
     fit-margin-top="0"
     fit-margin-left="0"
     fit-margin-right="0"
     fit-margin-bottom="0"
     showborder="false"
     inkscape:window-width="1920"
     inkscape:window-height="1001"
     inkscape:window-x="-9"
     inkscape:window-y="-9"
     inkscape:window-maximized="1" />
  <metadata
     id="metadata5">
    <rdf:RDF>
      <cc:Work
         rdf:about="">
        <dc:format>image/svg+xml</dc:format>
        <dc:type
           rdf:resource="http://purl.org/dc/dcmitype/StillImage" />
        <dc:title></dc:title>
      </cc:Work>
    </rdf:RDF>
  </metadata>
  <g
     inkscape:groupmode="layer"
     id="layer2"
     inkscape:label="Layer 2"
     transform="translate(-12.766942,-130.20591)">
    <g
       id="XMLID_1736_"
       transform="matrix(0.26458333,0,0,0.26458333,12.766942,111.68508)">
      <g
         id="XMLID_1173_">
        <path
           d="m 288,80 c 118.189,0 214,95.811 214,214 V 432 H 74 V 294 C 74,175.811 169.811,80 288,80 Z"
           id="XMLID_693_"
           inkscape:connector-curvature="0"
           style="fill:#99ebfa" />
      </g>
      <g
         id="XMLID_2002_">
        <g
           id="XMLID_2003_">
          <path
             d="m 168.167,248.127 c 48.509,0 87.833,39.324 87.833,87.833 V 432 H 78.958 V 248 Z"
             id="XMLID_689_"
             inkscape:connector-curvature="0"
             style="fill:#99ebfa" />
        </g>
      </g>
      <g
         id="XMLID_1169_">
        <path
           d="m 97.833,248.127 c 48.509,0 87.833,39.324 87.833,87.833 V 432 H 10 v -96.04 c 0,-48.509 39.324,-87.833 87.833,-87.833 z"
           id="XMLID_684_"
           inkscape:connector-curvature="0"
           style="fill:#ccf5fc" />
      </g>
      <g
         id="XMLID_1592_">
        <path
           d="m 98,292.127 c -24.3,0 -44,19.699 -44,44 V 432 h 88 v -95.873 c 0,-24.301 -19.7,-44 -44,-44 z"
           id="XMLID_637_"
           inkscape:connector-curvature="0"
           style="fill:#33d6f5" />
      </g>
      <g
         id="XMLID_694_">
        <path
           d="M 446.392,135.608 C 404.084,93.3 347.833,70 288,70 236.41,70 186.053,87.965 146.204,120.585 108.211,151.686 81.3,194.703 70.036,242.156 29.589,254.163 0,291.668 0,335.96 V 432 c 0,5.522 4.477,10 10,10 h 273 c 5.522,0 10,-4.478 10,-10 0,-5.522 -4.478,-10 -10,-10 h -17 v -68 h 124.211 v 68 H 373 c -5.522,0 -10,4.478 -10,10 0,5.522 4.478,10 10,10 h 129 c 5.522,0 10,-4.478 10,-10 V 294 C 512,234.167 488.7,177.916 446.392,135.608 Z M 353.769,334 v -68 h 92.885 v 68 z M 236.48,266 h 97.289 v 68 h -67.793 c -0.527,-26.612 -11.731,-50.649 -29.496,-68 z m -52.038,-88 h 92.884 v 68 h -70.721 c -7.007,-3.005 -14.433,-5.212 -22.163,-6.512 z m 205.769,0 v 68 h -92.885 v -68 z m 65.5,0 c 14.089,20.307 24.586,43.28 30.571,68 h -76.07 v -68 z m 10.942,88 h 23.417 c 1.263,9.157 1.93,18.501 1.93,28 v 40 H 466.653 Z M 439.912,158 h -86.144 v -57.119 c 33.462,11.426 63.028,31.325 86.144,57.119 z M 333.769,95.179 V 158 H 240.885 V 95.582 C 256.09,91.933 271.876,90 288,90 c 15.731,0 31.051,1.793 45.769,5.179 z m -112.884,6.31 V 158 h -84.688 c 22.933,-25.459 52.082,-45.039 84.688,-56.511 z M 120.318,178 h 44.124 v 60.127 H 97.833 c -2.063,0 -4.109,0.072 -6.141,0.198 6.211,-21.908 16.002,-42.208 28.626,-60.325 z m 26.967,136.103 20.658,-11.927 c 4.947,10.224 7.723,21.686 7.723,33.785 v 16.104 H 152 v -15.936 c 0,-7.845 -1.695,-15.295 -4.715,-22.026 z M 135.818,297.629 C 128.333,290.275 118.721,285.087 108,283.07 v -24.258 c 19.506,2.558 36.754,12.356 48.957,26.612 z M 88,258.77 v 24.3 c -10.78,2.028 -20.44,7.26 -27.943,14.679 L 38.71,285.425 C 50.982,271.088 68.357,261.259 88,258.77 Z m -68,77.19 c 0,-12.099 2.777,-23.561 7.723,-33.785 l 20.922,12.08 C 45.668,320.946 44,328.343 44,336.127 v 15.936 H 20 Z m 0,36.104 H 44 V 422 H 20 Z M 64,422 v -85.873 c 0,-18.748 15.252,-34 34,-34 18.748,0 34,15.252 34,34 V 422 Z m 88,0 v -49.936 h 23.667 V 422 Z m 43.667,0 v -86.04 c 0,-31.713 -15.171,-59.945 -38.633,-77.833 h 11.133 c 42.917,0 77.833,34.916 77.833,77.833 V 422 Z m 214.544,0 V 354 H 492 v 68 z"
           id="XMLID_697_"
           inkscape:connector-curvature="0" />
        <path
           d="m 328,422 c -2.63,0 -5.21,1.069 -7.07,2.93 -1.86,1.86 -2.93,4.44 -2.93,7.07 0,2.63 1.069,5.21 2.93,7.069 1.86,1.86 4.44,2.931 7.07,2.931 2.63,0 5.21,-1.07 7.069,-2.931 C 336.93,437.21 338,434.63 338,432 c 0,-2.63 -1.07,-5.21 -2.931,-7.07 C 333.21,423.069 330.63,422 328,422 Z"
           id="XMLID_716_"
           inkscape:connector-curvature="0" />
      </g>
    </g>
  </g>
  <g
     inkscape:label="Layer 1"
     inkscape:groupmode="layer"
     id="layer1"
     transform="translate(-12.766942,-130.20591)">
    <g
       id="g925"
       transform="matrix(0.10742188,0,0,0.10742187,102.61782,134.50357)">
      <path
         id="path861"
         d="M 256,0 C 115.3,0 0,115.3 0,256 0,396.7 115.3,512 256,512 396.7,512 512,396.7 512,256 512,115.3 396.7,0 256,0 Z"
         style="fill:#77dd00"
         inkscape:connector-curvature="0" />
      <path
         id="path863"
         d="M 512,256 C 512,396.7 396.7,512 256,512 V 0 c 140.7,0 256,115.3 256,256 z"
         style="fill:#66bb00"
         inkscape:connector-curvature="0" />
      <polygon
         id="polygon865"
         points="106,226 226,226 226,106 286,106 286,226 406,226 406,286 286,286 286,406 226,406 226,286 106,286 "
         style="fill:#e7e7e7" />
      <polygon
         id="polygon867"
         points="286,226 406,226 406,286 286,286 286,406 256,406 256,106 286,106 "
         style="fill:#d3d3d8" />
      <g
         id="g869">
</g>
      <g
         id="g871">
</g>
      <g
         id="g873">
</g>
      <g
         id="g875">
</g>
      <g
         id="g877">
</g>
      <g
         id="g879">
</g>
      <g
         id="g881">
</g>
      <g
         id="g883">
</g>
      <g
         id="g885">
</g>
      <g
         id="g887">
</g>
      <g
         id="g889">
</g>
      <g
         id="g891">
</g>
      <g
         id="g893">
</g>
      <g
         id="g895">
</g>
      <g
         id="g897">
</g>
    </g>
  </g>
</svg>
